<svg width="571" height="542" viewBox="0 0 571 542" fill="none" xmlns="http://www.w3.org/2000/svg">
<path d="M81.3813 133.292C81.029 131.868 111.815 101.302 149.782 65.3518L218.833 0L293.412 71.1494L251.434 110.982L237.206 98.1701C229.374 91.1302 221.759 85.3844 220.269 85.3844C218.778 85.3844 196.177 105.469 122.492 174.677L102.248 155.266C91.1102 144.602 81.7336 134.689 81.3813 133.292Z" fill="#213859"/>
<path d="M0 208.323L23.3602 186.971C36.1785 175.221 47.6418 165.618 48.8071 165.618C49.9453 165.618 93.8744 206.667 241.895 348.086L210.784 377.876L144.389 314.439L124.064 333.851L208.074 414.085L363.899 265.264L408.614 307.969L199.944 507.259L3.523 319.616L0 208.323Z" fill="#213859"/>
<path fill-rule="evenodd" clip-rule="evenodd" d="M368.911 32.9189L570.833 225.739L570.86 329.267L519.316 378.442L463.598 325.384C432.948 296.19 389.344 253.899 325.578 190.462L356.743 161.034L425.848 226.826L442.677 207.622L403.084 168.1C381.322 146.359 362.298 128.553 360.808 128.527C359.317 128.501 323.952 161.811 206.338 276.571L160.268 232.21L368.911 32.9189ZM444.791 366.77C446.281 366.77 457.284 376.061 490.888 408.155L351.404 541.498L275.47 469.029L320.158 426.324L349.968 454.742L396.011 410.769C421.322 386.569 443.273 366.77 444.791 366.77Z" fill="#687070"/>
</svg>
