<svg width="2593" height="1700" viewBox="0 0 2593 1700" fill="none" xmlns="http://www.w3.org/2000/svg">
<path d="M1366.04 166.58C1381.78 132.246 1400.28 90.5181 1410.5 69.3715L1433 19.8838C1433 19.8838 1432.87 20.383 1443 52.3833C1447.4 64.5563 1462.29 105.976 1476.08 143.171C1489.86 180.366 1505 221.333 1509.71 234.208C1514.45 247.083 1527.37 282.197 1538.46 312.239C1549.56 342.282 1563.77 380.621 1570.04 397.424C1576.31 414.227 1586.58 441.746 1592.85 458.549C1599.14 475.352 1614.2 516.032 1626.35 548.935C1638.5 581.838 1671.54 671.367 1699.76 747.916C1727.99 824.465 1754.36 896.436 1758.37 907.881C1762.4 919.326 1773.38 949.472 1782.82 974.858C1792.24 1000.24 1799.94 1021.63 1799.94 1022.33C1799.94 1023.03 1752.83 1023.65 1590.53 1023.78L1566.19 960.631C1552.82 925.906 1535.26 880.206 1512.5 820.72H1298.54C1180.85 820.746 1070.45 821.438 1066.5 820.372C1066.58 819.305 1083.5 782.372 1143 644.372L1310.48 641.923C1403.97 641.507 1453.97 640.362 1453.97 638.672C1453.97 637.241 1449.93 625.822 1445.02 613.311C1440.13 600.8 1416.82 541.393 1393.28 481.308C1369.73 421.224 1342.76 352.166 1333.32 327.846C1323.87 303.526 1314 283.383 1314 280.886C1314 279.386 1320.62 264.216 1327 250.386C1333 237.386 1350.3 200.914 1366.04 166.58Z" fill="#687070"/>
<path d="M1159.47 108.042C1162.26 101.617 1172.82 79.0661 1182.91 57.9716L1201.3 19.606H1305.02C1362.07 19.606 1408.76 19.8921 1408.79 20.2562C1408.81 20.6204 1393.46 53.6798 1374.68 93.7361C1355.88 133.792 1330.82 187.634 1319.01 213.385C1307.18 239.135 1279.97 297.659 1258.51 343.438C1237.07 389.216 1203.41 461.786 1183.69 504.703C1164 547.621 1127.43 627.213 1102.45 681.575C1077.46 735.937 1037.92 821.382 1014.56 871.453C991.195 921.523 965.475 976.506 943 1023.87V1023.81V1023.74V1023.61C885.042 1023.61 731.526 1024.74 731.5 1024.37C731.474 1024.01 742.951 999.503 755.984 971.593C769.016 943.684 821.615 830.174 872.835 719.291C924.081 608.434 994.655 456.844 1029.69 382.454C1064.76 308.063 1107.14 218.509 1123.91 183.473C1140.69 148.436 1156.69 114.467 1159.47 108.042Z" fill="#213859"/>
<path d="M2138.38 0.0148461C2160.19 -0.141247 2189.44 0.951192 2203.37 2.46016C2217.31 3.94311 2238.08 6.88308 2249.51 8.99043C2260.95 11.0978 2279.1 15.2084 2289.81 18.1223C2300.55 21.0361 2321 27.5924 2335.3 32.6916C2349.6 37.8169 2372.43 47.5216 2386 54.26C2399.57 61.0243 2420.65 72.7317 2432.79 80.2766C2444.93 87.8214 2463.96 100.882 2495.18 124.61L2485.43 136.109C2480.08 142.405 2454.73 171.986 2429.1 201.801C2403.49 231.59 2381.26 257.581 2379.71 259.532C2377.42 262.394 2374.22 261.145 2362.6 252.872C2354.72 247.253 2341.28 238.432 2332.7 233.255C2324.12 228.104 2307.75 219.232 2296.31 213.561C2284.87 207.915 2264.98 199.719 2252.11 195.401C2239.25 191.056 2218.19 185.411 2205.32 182.835C2188.29 179.401 2169.89 178.125 2137.73 178.125C2102.56 178.099 2087.71 179.271 2064.94 183.823C2049.21 186.971 2028.16 192.331 2018.15 195.739C2008.14 199.174 1991.76 205.704 1981.75 210.282C1971.74 214.835 1953.6 225.19 1941.46 233.255C1929.32 241.32 1908.78 258.517 1895.83 271.474C1882.89 284.43 1865.7 304.957 1857.65 317.133C1849.59 329.283 1838.93 348.015 1833.94 358.76C1828.97 369.479 1821.95 387.04 1818.37 397.785C1814.75 408.504 1809.32 429.604 1806.25 444.615C1803.18 459.627 1800.01 486.554 1799.21 504.453C1798.3 524.044 1799 547.329 1800.92 562.991C1802.69 577.301 1806.41 598.946 1809.21 611.122C1812.02 623.272 1819.01 644.944 1824.76 659.253C1830.5 673.562 1840.54 694.037 1847.06 704.782C1853.56 715.501 1864.9 731.814 1872.23 740.998C1879.56 750.182 1893.16 764.621 1902.46 773.103C1911.77 781.584 1926.38 793.162 1934.96 798.833C1943.54 804.505 1963.42 815.484 1979.15 823.211C1994.88 830.938 2018.28 840.277 2031.14 843.972C2044.01 847.666 2065.07 852.376 2077.94 854.431C2090.81 856.512 2115.97 858.932 2133.83 859.79C2151.72 860.675 2179.77 860.181 2196.22 858.724C2212.68 857.241 2238.39 853.546 2253.41 850.502C2268.44 847.458 2291.24 841.448 2304.11 837.155C2316.98 832.863 2338.63 824.069 2352.2 817.591C2365.77 811.113 2380.12 803.594 2391.2 795.841L2389.9 638.44L2229.57 637.139L2230.87 464.128L2591.37 462.827L2591.32 898.608L2555.62 922.023C2536 934.901 2500.04 955.402 2475.71 967.604C2451.4 979.806 2419.22 994.245 2404.19 999.735C2389.17 1005.2 2362.29 1013.71 2344.4 1018.6C2326.54 1023.51 2299.04 1029.84 2283.31 1032.62C2267.58 1035.4 2241.85 1038.89 2226.12 1040.35C2210.39 1041.8 2178.23 1043 2154.63 1043C2131.02 1043 2097.12 1041.28 2079.24 1039.18C2061.38 1037.09 2035.62 1033.09 2022.05 1030.3C2008.48 1027.49 1986.22 1022.03 1972.65 1018.15C1959.08 1014.25 1937.43 1007.07 1924.56 1002.18C1911.69 997.289 1889.46 987.558 1875.17 980.56C1860.87 973.587 1835.13 958.55 1817.97 947.206C1817.37 946.804 1816.78 946.418 1816.22 946.046C1809.65 941.708 1806.1 939.364 1802.84 936.668C1799.06 933.539 1795.67 929.935 1788.4 922.193L1611.49 437.28C1615 421.193 1620.27 401.664 1622.79 391.28C1626.3 376.971 1632.88 354.727 1637.43 341.849C1641.98 328.971 1652.45 304.957 1660.72 288.515C1668.99 272.046 1682.69 248.059 1691.14 235.181C1699.61 222.303 1715.37 201.228 1726.13 188.35C1736.87 175.472 1755.51 155.543 1767.54 144.096C1779.55 132.623 1796.4 117.897 1804.98 111.341C1813.56 104.811 1829.33 93.6229 1840.07 86.4943C1850.78 79.3658 1867.16 69.3501 1876.47 64.2248C1885.77 59.0735 1905.63 49.6549 1920.66 43.2287C1935.69 36.8287 1959.65 28.0615 1973.95 23.7688C1988.25 19.476 2009.91 13.9344 2022.05 11.4367C2034.19 8.96513 2056.41 5.42684 2071.44 3.60567C2086.47 1.7845 2116.57 0.170946 2138.38 0.0148461Z" fill="#687070"/>
<path d="M5 1020.87V17.8716H199.029V389.449H708.678V17.8716H904V598.637L842.5 730.637C819.061 780.657 773.018 883.933 708.678 1020.87V584.333H199.029V1020.87H5Z" fill="#213859"/>
<path d="M86.3813 1293.29C86.029 1291.87 116.815 1261.3 154.782 1225.35L223.833 1160L298.412 1231.15L256.434 1270.98L242.206 1258.17C234.374 1251.13 226.759 1245.38 225.269 1245.38C223.778 1245.38 201.177 1265.47 127.492 1334.68L107.248 1315.27C96.1102 1304.6 86.7336 1294.69 86.3813 1293.29Z" fill="#213859"/>
<path d="M5 1368.32L28.3602 1346.97C41.1785 1335.22 52.6418 1325.62 53.8071 1325.62C54.9453 1325.62 98.8744 1366.67 246.895 1508.09L215.784 1537.88L149.389 1474.44L129.064 1493.85L213.074 1574.08L368.899 1425.26L413.614 1467.97L204.944 1667.26L8.523 1479.62L5 1368.32Z" fill="#213859"/>
<path fill-rule="evenodd" clip-rule="evenodd" d="M377.911 1190.92L579.833 1383.74L579.86 1487.27L528.316 1536.44L472.598 1483.38C441.948 1454.19 398.344 1411.9 334.578 1348.46L365.743 1319.03L434.848 1384.83L451.677 1365.62L412.084 1326.1C390.322 1304.36 371.298 1286.55 369.808 1286.53C368.317 1286.5 332.952 1319.81 215.338 1434.57L169.268 1390.21L377.911 1190.92ZM453.791 1524.77C455.281 1524.77 466.284 1534.06 499.888 1566.15L360.404 1699.5L284.47 1627.03L329.158 1584.32L358.968 1612.74L405.011 1568.77C430.322 1544.57 452.273 1524.77 453.791 1524.77Z" fill="#687070"/>
<path d="M660.866 1625V1261.36H893.821V1316.58H726.74V1415.31H877.841V1470.53H726.74V1625H660.866ZM925.994 1625V1352.27H990.27V1625H925.994ZM958.31 1313.57C948.13 1313.57 939.37 1310.19 932.031 1303.44C924.692 1296.58 921.023 1288.35 921.023 1278.76C921.023 1269.06 924.692 1260.83 932.031 1254.08C939.37 1247.22 948.13 1243.79 958.31 1243.79C968.608 1243.79 977.367 1247.22 984.588 1254.08C991.927 1260.83 995.597 1269.06 995.597 1278.76C995.597 1288.35 991.927 1296.58 984.588 1303.44C977.367 1310.19 968.608 1313.57 958.31 1313.57ZM1095.64 1465.2V1625H1031.37V1352.27H1092.8V1398.62H1096C1102.27 1383.35 1112.27 1371.21 1126 1362.22C1139.85 1353.22 1156.96 1348.72 1177.32 1348.72C1196.14 1348.72 1212.53 1352.75 1226.5 1360.8C1240.59 1368.84 1251.48 1380.5 1259.17 1395.77C1266.98 1411.04 1270.83 1429.57 1270.71 1451.35V1625H1206.44V1461.29C1206.44 1443.06 1201.7 1428.8 1192.23 1418.5C1182.88 1408.2 1169.92 1403.05 1153.35 1403.05C1142.1 1403.05 1132.1 1405.54 1123.34 1410.51C1114.7 1415.36 1107.89 1422.41 1102.92 1431.64C1098.07 1440.87 1095.64 1452.06 1095.64 1465.2ZM1274.96 1316.58V1261.36H1565.09V1316.58H1452.7V1625H1387.36V1316.58H1274.96ZM1564.86 1625V1352.27H1627.18V1397.73H1630.02C1635 1381.98 1643.52 1369.85 1655.59 1361.33C1667.79 1352.69 1681.69 1348.37 1697.32 1348.37C1700.87 1348.37 1704.84 1348.54 1709.22 1348.9C1713.71 1349.14 1717.44 1349.55 1720.4 1350.14V1409.27C1717.68 1408.32 1713.36 1407.49 1707.44 1406.78C1701.64 1405.95 1696.02 1405.54 1690.57 1405.54C1678.85 1405.54 1668.32 1408.08 1658.97 1413.17C1649.73 1418.15 1642.45 1425.07 1637.13 1433.95C1631.8 1442.83 1629.14 1453.07 1629.14 1464.67V1625H1564.86ZM1811.7 1630.5C1794.42 1630.5 1778.85 1627.43 1765 1621.27C1751.27 1615 1740.38 1605.76 1732.33 1593.57C1724.4 1581.38 1720.44 1566.35 1720.44 1548.47C1720.44 1533.08 1723.28 1520.36 1728.96 1510.3C1734.64 1500.24 1742.39 1492.19 1752.22 1486.15C1762.04 1480.11 1773.11 1475.56 1785.42 1472.48C1797.85 1469.28 1810.69 1466.97 1823.95 1465.55C1839.93 1463.9 1852.89 1462.42 1862.84 1461.12C1872.78 1459.69 1880 1457.56 1884.5 1454.72C1889.12 1451.76 1891.42 1447.21 1891.42 1441.05V1439.99C1891.42 1426.61 1887.46 1416.25 1879.53 1408.91C1871.6 1401.57 1860.17 1397.9 1845.26 1397.9C1829.52 1397.9 1817.03 1401.34 1807.79 1408.2C1798.68 1415.07 1792.52 1423.18 1789.33 1432.53L1729.31 1424.01C1734.05 1407.43 1741.86 1393.58 1752.75 1382.46C1763.64 1371.21 1776.96 1362.81 1792.7 1357.24C1808.45 1351.56 1825.85 1348.72 1844.9 1348.72C1858.04 1348.72 1871.12 1350.26 1884.14 1353.34C1897.17 1356.42 1909.06 1361.51 1919.83 1368.61C1930.6 1375.59 1939.25 1385.12 1945.76 1397.19C1952.39 1409.27 1955.7 1424.36 1955.7 1442.47V1625H1893.91V1587.54H1891.78C1887.87 1595.11 1882.37 1602.21 1875.27 1608.84C1868.28 1615.35 1859.46 1620.62 1848.81 1624.64C1838.28 1628.55 1825.91 1630.5 1811.7 1630.5ZM1828.39 1583.27C1841.29 1583.27 1852.48 1580.73 1861.95 1575.64C1871.42 1570.43 1878.7 1563.57 1883.79 1555.04C1889 1546.52 1891.6 1537.23 1891.6 1527.17V1495.03C1889.59 1496.69 1886.16 1498.22 1881.3 1499.64C1876.57 1501.07 1871.24 1502.31 1865.32 1503.37C1859.4 1504.44 1853.55 1505.39 1847.75 1506.21C1841.94 1507.04 1836.91 1507.75 1832.65 1508.35C1823.06 1509.65 1814.48 1511.78 1806.91 1514.74C1799.33 1517.7 1793.35 1521.84 1788.97 1527.17C1784.59 1532.37 1782.4 1539.12 1782.4 1547.41C1782.4 1559.24 1786.72 1568.18 1795.37 1574.22C1804.01 1580.26 1815.02 1583.27 1828.39 1583.27ZM2114.29 1630.33C2087.07 1630.33 2063.69 1624.35 2044.16 1612.39C2024.75 1600.44 2009.77 1583.93 1999.24 1562.86C1988.82 1541.67 1983.61 1517.28 1983.61 1489.7C1983.61 1462 1988.94 1437.56 1999.59 1416.37C2010.25 1395.06 2025.28 1378.49 2044.69 1366.65C2064.22 1354.7 2087.3 1348.72 2113.94 1348.72C2136.07 1348.72 2155.66 1352.81 2172.71 1360.97C2189.87 1369.02 2203.55 1380.45 2213.73 1395.24C2223.91 1409.92 2229.71 1427.08 2231.13 1446.73H2169.69C2167.21 1433.59 2161.29 1422.64 2151.94 1413.88C2142.7 1405.01 2130.33 1400.57 2114.83 1400.57C2101.69 1400.57 2090.15 1404.12 2080.2 1411.22C2070.26 1418.21 2062.51 1428.27 2056.94 1441.41C2051.5 1454.55 2048.77 1470.29 2048.77 1488.64C2048.77 1507.22 2051.5 1523.2 2056.94 1536.58C2062.39 1549.83 2070.02 1560.07 2079.85 1567.29C2089.79 1574.4 2101.45 1577.95 2114.83 1577.95C2124.3 1577.95 2132.76 1576.17 2140.22 1572.62C2147.79 1568.95 2154.13 1563.68 2159.22 1556.82C2164.31 1549.95 2167.8 1541.61 2169.69 1531.78H2231.13C2229.59 1551.08 2223.91 1568.18 2214.08 1583.1C2204.26 1597.89 2190.88 1609.49 2173.95 1617.9C2157.03 1626.18 2137.14 1630.33 2114.29 1630.33ZM2317.5 1539.42L2317.32 1461.83H2327.62L2425.63 1352.27H2500.74L2380.18 1486.51H2366.86L2317.5 1539.42ZM2258.9 1625V1261.36H2323.18V1625H2258.9ZM2430.07 1625L2341.29 1500.89L2384.61 1455.61L2506.95 1625H2430.07Z" fill="#213859"/>
</svg>
