<svg width="2593" height="1702" viewBox="0 0 2593 1702" fill="none" xmlns="http://www.w3.org/2000/svg">
<path d="M2495.13 1356.05C2504.38 1351.53 2517 1347.89 2527.8 1346.61C2537.48 1345.47 2545.94 1344.39 2546.65 1344.24C2547.35 1344.07 2550.69 1344.62 2554.11 1345.45C2560.24 1346.96 2560.32 1347.23 2559.21 1397.89H2538.23C2519.21 1397.89 2515.64 1398.72 2500.01 1406.68C2487.49 1413.06 2480.13 1418.94 2473.2 1428.04C2467.94 1434.95 2461.96 1446.25 2459.88 1453.16C2456.94 1463.06 2456.13 1481.1 2456.18 1610.2H2398.39V1351.4H2456.18L2456.16 1390.35L2468.1 1376.88C2475.71 1368.31 2485.53 1360.75 2495.13 1356.05Z" fill="#F5F5F5"/>
<path fill-rule="evenodd" clip-rule="evenodd" d="M2212.44 1344.19C2220.05 1344.07 2234.17 1345.63 2243.85 1347.66C2253.52 1349.7 2268.78 1355 2277.77 1359.42C2286.77 1363.82 2299.28 1372.61 2305.64 1378.89C2311.97 1385.2 2320.59 1397.13 2324.79 1405.43C2328.99 1413.72 2334.26 1428.69 2336.5 1438.72C2338.76 1448.74 2340.59 1465.4 2340.59 1494.62H2142.08L2143.61 1502.79C2144.47 1507.29 2146.53 1514.35 2148.16 1518.49C2149.82 1522.64 2154.49 1530.45 2158.56 1535.83C2162.63 1541.23 2169.92 1548.17 2174.75 1551.23C2179.57 1554.32 2190.33 1558.82 2198.62 1561.23C2209.35 1564.37 2218.42 1565.25 2230.03 1564.27C2239.02 1563.52 2251.46 1560.9 2257.67 1558.47C2263.88 1556.01 2273.38 1551.11 2278.78 1547.56C2284.16 1544.02 2290.09 1539.97 2291.92 1538.59C2294.38 1536.73 2298.28 1539.05 2306.82 1547.39C2313.18 1553.62 2320.84 1561.99 2329.29 1573.32L2319.24 1581.66C2313.71 1586.28 2301.85 1593.97 2292.85 1598.77C2283.85 1603.59 2268.6 1609.22 2258.93 1611.33C2249.25 1613.42 2231.16 1615.15 2218.72 1615.15C2206.28 1615.15 2188.77 1613.42 2179.77 1611.28C2170.78 1609.15 2156.75 1603.79 2148.59 1599.37C2140.4 1594.97 2128.61 1586.83 2122.35 1581.31C2116.1 1575.78 2106.65 1564.47 2101.35 1556.18C2096.02 1547.89 2089.18 1533.77 2086.14 1524.77C2081.7 1511.71 2080.59 1502.69 2080.54 1479.55C2080.51 1456.58 2081.67 1446.91 2086.17 1432.44C2089.28 1422.36 2096.65 1407.21 2102.63 1398.52C2108.58 1389.87 2120.17 1377.66 2128.38 1371.35C2136.6 1365.07 2149.84 1357.44 2157.79 1354.39C2165.73 1351.38 2178.16 1347.89 2185.43 1346.68C2192.69 1345.45 2204.82 1344.34 2212.44 1344.19ZM2213.7 1394.42C2204.02 1394.47 2191.58 1396.1 2186.05 1398.04C2180.53 1399.95 2171.48 1405.33 2165.95 1409.92C2160.42 1414.55 2153.36 1423.34 2150.27 1429.47C2147.18 1435.58 2144.64 1443.14 2144.62 1446.26L2144.59 1451.91L2284.05 1452.03C2280.99 1439.27 2277.32 1430.78 2273.9 1424.9C2270.51 1419.02 2263.52 1411.1 2258.37 1407.31C2253.22 1403.52 2245.03 1399.04 2240.16 1397.36C2235.28 1395.7 2223.37 1394.37 2213.7 1394.42Z" fill="#F5F5F5"/>
<path d="M1871.32 1357.36C1878.58 1353.74 1891.3 1349.22 1899.59 1347.36C1908.46 1345.35 1922.43 1344.39 1933.51 1345.07C1943.87 1345.7 1958.01 1347.89 1964.92 1349.97C1971.83 1352.03 1982.87 1357.18 1989.42 1361.35C1995.98 1365.55 2004.6 1373.79 2008.6 1379.67C2012.57 1385.55 2017.89 1396 2020.46 1402.91C2024.65 1414.19 2025.18 1425.32 2026.49 1610.2H1968.69L1968.06 1524.15C1967.49 1443.79 1967.11 1437.44 1962.41 1428.11C1959.65 1422.64 1953.41 1414.37 1948.59 1409.75C1943.19 1404.57 1934.49 1399.82 1925.97 1397.41C1916.95 1394.85 1907.81 1394.02 1899.59 1395.05C1892.68 1395.9 1881.37 1399.32 1874.46 1402.66C1867.55 1405.98 1858.66 1412.49 1854.68 1417.11C1850.71 1421.73 1845.06 1430.05 1842.12 1435.58C1837.02 1445.15 1836.74 1449.47 1835.51 1610.2H1777.72V1351.4H1835.51L1835.31 1385.32L1846.72 1374.65C1853 1368.77 1864.06 1361 1871.32 1357.36Z" fill="#F5F5F5"/>
<path d="M1430.04 1356.53C1436.75 1353.11 1448.48 1348.97 1456.07 1347.31C1463.66 1345.65 1471.58 1344.17 1473.66 1344.04C1475.75 1343.92 1481.3 1344.54 1494.67 1347.03L1493.14 1367.43C1492.31 1378.67 1491.53 1390.1 1491.43 1392.86C1491.28 1397.46 1489.49 1397.89 1470.52 1397.91C1453.31 1397.94 1447.43 1399.07 1435.97 1404.57C1427.9 1408.44 1417.68 1416.28 1411.39 1423.39C1405.46 1430.1 1398.95 1440.65 1396.92 1446.88C1393.95 1455.88 1393.2 1473.79 1393.25 1610.2H1335.46V1351.4H1393.25V1389.09L1405.54 1375.9C1412.32 1368.64 1423.33 1359.92 1430.04 1356.53Z" fill="#F5F5F5"/>
<path d="M1119.35 1346.28C1128.35 1345.22 1143.6 1344.9 1153.27 1345.58C1162.95 1346.23 1177.92 1348.39 1186.57 1350.35C1195.21 1352.31 1206.8 1356.18 1212.33 1358.94C1217.85 1361.71 1227.6 1368.77 1233.99 1374.65C1240.37 1380.53 1248.13 1390.4 1251.25 1396.63C1254.39 1402.84 1258.21 1413.87 1259.77 1421.13C1261.55 1429.47 1262.58 1466.66 1262.58 1610.2H1204.79V1577.54L1190.34 1589.27C1182.4 1595.73 1169.66 1603.82 1162.07 1607.24C1151.36 1612.06 1142.59 1613.74 1123.12 1614.72C1102.21 1615.78 1094.93 1615.08 1079.77 1610.58C1064.9 1606.16 1058.99 1602.76 1047.56 1591.99C1037.48 1582.49 1032.13 1574.92 1028.44 1564.97C1024.97 1555.63 1023.33 1545.08 1023.33 1532.31C1023.33 1519.5 1024.97 1509.04 1028.46 1499.65C1032 1490.15 1037.41 1482.34 1045.7 1474.65C1052.36 1468.49 1063.44 1460.88 1070.35 1457.74C1077.26 1454.57 1091.68 1450.27 1102.39 1448.19C1113.09 1446.08 1128.92 1444.42 1137.57 1444.45C1146.21 1444.5 1161.74 1446.08 1172.12 1447.96C1182.47 1449.85 1194.08 1452.06 1197.88 1452.91C1204.11 1454.27 1204.79 1453.74 1204.76 1447.51C1204.76 1443.72 1203.63 1436.36 1202.25 1431.18C1200.89 1426 1196.65 1418.16 1192.85 1413.79C1189.06 1409.4 1180.87 1403.59 1174.63 1400.9C1168.4 1398.21 1155.41 1395.45 1145.73 1394.77C1136.06 1394.12 1121.36 1394.8 1113.07 1396.3C1104.78 1397.81 1090.08 1403.01 1080.4 1407.86C1070.73 1412.71 1062.74 1416.4 1062.66 1416.08C1062.59 1415.75 1057.79 1407.84 1051.98 1398.52C1046.2 1389.19 1041.4 1380.15 1041.35 1378.42C1041.28 1376.68 1048.92 1371.18 1058.31 1366.15C1067.69 1361.15 1081.61 1355.07 1089.2 1352.64C1096.78 1350.2 1110.35 1347.33 1119.35 1346.28ZM1150.76 1490.63C1125.48 1489.72 1115.81 1490.33 1108.04 1493.27C1102.51 1495.35 1094.6 1500.5 1090.45 1504.72C1084.42 1510.83 1082.71 1515.03 1081.96 1525.48C1081.34 1534.22 1082.39 1541.31 1085.1 1546.76C1087.36 1551.26 1093.44 1557.41 1098.62 1560.45C1105.4 1564.45 1113.32 1566.28 1126.89 1566.99C1142.14 1567.79 1148.63 1566.88 1160.81 1562.21C1169.1 1559.05 1179.71 1552.99 1184.38 1548.77C1189.06 1544.55 1194.99 1536.86 1197.58 1531.68C1200.29 1526.26 1202.27 1516.93 1202.27 1509.7C1202.27 1497.34 1202.12 1497.08 1192.85 1494.47C1187.67 1492.99 1168.73 1491.26 1150.76 1490.63Z" fill="#F5F5F5"/>
<path d="M1577.95 1350.15L1578.65 1310.58L1579.33 1271H1637.17L1638.25 1350.15L1717.41 1351.4V1396.63H1637V1465.73C1637 1518.37 1637.8 1536.76 1640.41 1542.99C1642.3 1547.49 1645.97 1553.07 1648.58 1555.4C1651.19 1557.71 1658.43 1560.78 1664.64 1562.19C1673.01 1564.1 1680.17 1563.87 1692.28 1561.33C1701.28 1559.45 1710.2 1557.51 1712.11 1557.04C1714.62 1556.43 1717.33 1562.54 1727.46 1600.15L1720.55 1603.67C1716.75 1605.6 1706.3 1609.12 1697.31 1611.48C1685.32 1614.62 1674.61 1615.45 1657.1 1614.62C1640.34 1613.82 1629.48 1611.86 1620.66 1608.09C1613.75 1605.13 1604.48 1599.02 1600.06 1594.52C1595.64 1590.03 1589.43 1580.68 1586.24 1573.77C1580.63 1561.58 1580.43 1558.79 1579.2 1396.63H1527.69L1527.06 1374.02C1526.61 1357.38 1527.26 1351.33 1529.57 1351.13C1531.31 1350.98 1542.89 1350.7 1577.95 1350.15Z" fill="#F5F5F5"/>
<path d="M798.586 1251.53C870.779 1252.43 889.551 1253.41 901.361 1256.81C909.301 1259.09 922.318 1264.22 930.258 1268.21C938.551 1272.36 950.336 1281.48 957.9 1289.57C965.162 1297.31 973.907 1309.9 977.375 1317.48C980.817 1325.1 984.838 1339.49 986.27 1349.52C987.702 1359.55 988.205 1373.97 987.376 1381.56C986.571 1389.17 984.662 1401.03 983.179 1407.94C981.672 1414.85 977.777 1425.88 974.51 1432.44C971.244 1438.99 963.78 1449.19 957.9 1455.1C952.02 1460.98 942.144 1468.84 935.913 1472.54C929.681 1476.23 915.559 1481.73 904.503 1484.8C887.063 1489.6 876.685 1490.45 767.552 1492.11V1610.2H709.756L710.007 1430.3L710.234 1250.42L798.586 1251.53ZM767.753 1371.3L767.552 1439.35C856.104 1439.4 872.589 1438.41 881.886 1435.68C888.797 1433.62 898.899 1428.24 904.327 1423.72C909.754 1419.19 916.815 1409.82 920.006 1402.91C924.429 1393.31 925.811 1385.9 925.811 1371.51C925.811 1356.91 924.479 1349.82 919.88 1340.1C916.614 1333.19 910.684 1324.49 906.713 1320.75C902.718 1317.03 894.953 1311.98 889.425 1309.52C881.007 1305.78 870.277 1304.9 823.664 1304.14L767.979 1303.24L767.753 1371.3Z" fill="#F5F5F5"/>
<path d="M1366.04 166.58C1381.78 132.246 1400.28 90.5181 1410.5 69.3715L1433 19.8838C1433 19.8838 1432.87 20.383 1443 52.3833C1447.4 64.5563 1462.29 105.976 1476.08 143.171C1489.86 180.366 1505 221.333 1509.71 234.208C1514.45 247.083 1527.37 282.197 1538.46 312.239C1549.56 342.282 1563.77 380.621 1570.04 397.424C1576.31 414.227 1586.58 441.746 1592.85 458.549C1599.14 475.352 1614.2 516.032 1626.35 548.935C1638.5 581.838 1671.54 671.367 1699.76 747.916C1727.99 824.465 1754.36 896.436 1758.37 907.881C1762.4 919.326 1773.38 949.472 1782.82 974.858C1792.24 1000.24 1799.94 1021.63 1799.94 1022.33C1799.94 1023.03 1752.83 1023.65 1590.53 1023.78L1566.19 960.631C1552.82 925.906 1535.26 880.206 1512.5 820.72H1298.54C1180.85 820.746 1070.45 821.438 1066.5 820.372C1066.58 819.305 1083.5 782.372 1143 644.372L1310.48 641.923C1403.97 641.507 1453.97 640.362 1453.97 638.672C1453.97 637.241 1449.93 625.822 1445.02 613.311C1440.13 600.8 1416.82 541.393 1393.28 481.308C1369.73 421.224 1342.76 352.166 1333.32 327.846C1323.87 303.526 1314 283.383 1314 280.886C1314 279.386 1320.62 264.216 1327 250.386C1333 237.386 1350.3 200.914 1366.04 166.58Z" fill="#F5F5F5"/>
<path d="M1159.47 108.041C1162.26 101.617 1172.82 79.0657 1182.91 57.9711L1201.3 19.6055H1305.02C1362.07 19.6055 1408.76 19.8916 1408.79 20.2557C1408.81 20.6199 1393.46 53.6793 1374.68 93.7356C1355.88 133.792 1330.82 187.634 1319.01 213.384C1307.18 239.135 1279.97 297.659 1258.51 343.437C1237.07 389.216 1203.41 461.785 1183.69 504.703C1164 547.62 1127.43 627.213 1102.45 681.575C1077.46 735.937 1037.92 821.382 1014.56 871.452C991.195 921.522 965.475 976.506 943 1023.87V1023.81V1023.74V1023.61C885.042 1023.61 731.526 1024.74 731.5 1024.37C731.474 1024.01 742.951 999.502 755.984 971.593C769.016 943.683 821.615 830.173 872.835 719.29C924.081 608.433 994.655 456.843 1029.69 382.453C1064.76 308.063 1107.14 218.508 1123.91 183.472C1140.69 148.436 1156.69 114.466 1159.47 108.041Z" fill="#F5F5F5"/>
<path d="M2138.38 0.0148461C2160.19 -0.141247 2189.44 0.951192 2203.37 2.46016C2217.31 3.94311 2238.08 6.88308 2249.51 8.99043C2260.95 11.0978 2279.1 15.2084 2289.81 18.1223C2300.55 21.0361 2321 27.5924 2335.3 32.6916C2349.6 37.8169 2372.43 47.5216 2386 54.26C2399.57 61.0243 2420.65 72.7317 2432.79 80.2766C2444.93 87.8214 2463.96 100.882 2495.18 124.61L2485.43 136.109C2480.08 142.405 2454.73 171.986 2429.1 201.801C2403.49 231.59 2381.26 257.581 2379.71 259.532C2377.42 262.394 2374.22 261.145 2362.6 252.872C2354.72 247.253 2341.28 238.432 2332.7 233.255C2324.12 228.104 2307.75 219.232 2296.31 213.561C2284.87 207.915 2264.98 199.719 2252.11 195.401C2239.25 191.056 2218.19 185.411 2205.32 182.835C2188.29 179.401 2169.89 178.125 2137.73 178.125C2102.56 178.099 2087.71 179.271 2064.94 183.823C2049.21 186.971 2028.16 192.331 2018.15 195.739C2008.14 199.174 1991.76 205.704 1981.75 210.282C1971.74 214.835 1953.6 225.19 1941.46 233.255C1929.32 241.32 1908.78 258.517 1895.83 271.474C1882.89 284.43 1865.7 304.957 1857.65 317.133C1849.59 329.283 1838.93 348.015 1833.94 358.76C1828.97 369.479 1821.95 387.04 1818.37 397.785C1814.75 408.504 1809.32 429.604 1806.25 444.615C1803.18 459.627 1800.01 486.554 1799.21 504.453C1798.3 524.044 1799 547.329 1800.92 562.991C1802.69 577.301 1806.41 598.946 1809.21 611.122C1812.02 623.272 1819.01 644.944 1824.76 659.253C1830.5 673.562 1840.54 694.037 1847.06 704.782C1853.56 715.501 1864.9 731.814 1872.23 740.998C1879.56 750.182 1893.16 764.621 1902.46 773.103C1911.77 781.584 1926.38 793.162 1934.96 798.833C1943.54 804.505 1963.42 815.484 1979.15 823.211C1994.88 830.938 2018.28 840.277 2031.14 843.972C2044.01 847.666 2065.07 852.376 2077.94 854.431C2090.81 856.512 2115.97 858.932 2133.83 859.79C2151.72 860.675 2179.77 860.181 2196.22 858.724C2212.68 857.241 2238.39 853.546 2253.41 850.502C2268.44 847.458 2291.24 841.448 2304.11 837.155C2316.98 832.863 2338.63 824.069 2352.2 817.591C2365.77 811.113 2380.12 803.594 2391.2 795.841L2389.9 638.44L2229.57 637.139L2230.87 464.128L2591.37 462.827L2591.32 898.608L2555.62 922.023C2536 934.901 2500.04 955.402 2475.71 967.604C2451.4 979.806 2419.22 994.245 2404.19 999.735C2389.17 1005.2 2362.29 1013.71 2344.4 1018.6C2326.54 1023.51 2299.04 1029.84 2283.31 1032.62C2267.58 1035.4 2241.85 1038.89 2226.12 1040.35C2210.39 1041.8 2178.23 1043 2154.63 1043C2131.02 1043 2097.12 1041.28 2079.24 1039.18C2061.38 1037.09 2035.62 1033.09 2022.05 1030.3C2008.48 1027.49 1986.22 1022.03 1972.65 1018.15C1959.08 1014.25 1937.43 1007.07 1924.56 1002.18C1911.69 997.289 1889.46 987.558 1875.17 980.56C1860.87 973.587 1835.13 958.55 1817.97 947.206C1817.37 946.804 1816.78 946.418 1816.22 946.046C1809.65 941.708 1806.1 939.364 1802.84 936.668C1799.06 933.539 1795.67 929.935 1788.4 922.193L1611.49 437.28C1615 421.193 1620.27 401.664 1622.79 391.28C1626.3 376.971 1632.88 354.727 1637.43 341.849C1641.98 328.971 1652.45 304.957 1660.72 288.515C1668.99 272.046 1682.69 248.059 1691.14 235.181C1699.61 222.303 1715.37 201.228 1726.13 188.35C1736.87 175.472 1755.51 155.543 1767.54 144.096C1779.55 132.623 1796.4 117.897 1804.98 111.341C1813.56 104.811 1829.33 93.6229 1840.07 86.4943C1850.78 79.3658 1867.16 69.3501 1876.47 64.2248C1885.77 59.0735 1905.63 49.6549 1920.66 43.2287C1935.69 36.8287 1959.65 28.0615 1973.95 23.7688C1988.25 19.476 2009.91 13.9344 2022.05 11.4367C2034.19 8.96513 2056.41 5.42684 2071.44 3.60567C2086.47 1.7845 2116.57 0.170946 2138.38 0.0148461Z" fill="#F5F5F5"/>
<path d="M5 1020.87V17.8711H199.029V389.449H708.678V17.8711H904V598.637L842.5 730.637C819.061 780.657 773.018 883.933 708.678 1020.87V584.332H199.029V1020.87H5Z" fill="#F5F5F5"/>
<path d="M86.3813 1293.82C86.029 1292.39 116.815 1261.7 154.782 1225.61L223.833 1160L298.412 1231.43L256.434 1271.42L242.206 1258.56C234.374 1251.49 226.759 1245.72 225.269 1245.72C223.778 1245.72 201.177 1265.88 127.492 1335.37L107.248 1315.88C96.1102 1305.17 86.7336 1295.22 86.3813 1293.82Z" fill="#F5F5F5"/>
<path d="M5 1369.14L28.3602 1347.71C41.1785 1335.91 52.6418 1326.27 53.8071 1326.27C54.9453 1326.27 98.8744 1367.48 246.895 1509.46L215.784 1539.37L149.389 1475.68L129.064 1495.17L213.074 1575.72L368.899 1426.31L413.614 1469.18L204.944 1669.26L8.523 1480.88L5 1369.14Z" fill="#F5F5F5"/>
<path fill-rule="evenodd" clip-rule="evenodd" d="M377.911 1190.92L579.833 1384.5L579.86 1488.43L528.316 1537.8L472.598 1484.53C441.948 1455.22 398.344 1412.77 334.578 1349.08L365.743 1319.54L434.848 1385.59L451.677 1366.31L412.084 1326.63C390.322 1304.81 371.298 1286.93 369.808 1286.9C368.317 1286.88 332.952 1320.32 215.338 1435.53L169.268 1390.99L377.911 1190.92ZM453.791 1526.08C455.281 1526.08 466.284 1535.41 499.888 1567.63L360.404 1701.5L284.47 1628.74L329.158 1585.87L358.968 1614.4L405.011 1570.25C430.322 1545.96 452.273 1526.08 453.791 1526.08Z" fill="#F5F5F5"/>
</svg>
